<?xml version="1.0" encoding="UTF-8"?>
<svg version="1.1" viewBox="0 0 1024 1024" xmlns="http://www.w3.org/2000/svg">
<path transform="matrix(11.092 0 0 11.092 -1521.7 -951.71)" d="m225.53 101.39c1.3567 1.6308 3.4619 4.0244 1.2059 6.4174s-2.915 3.096-3.928 4.173c-1.012 1.078-3.781 4.007-6.154 6.511-6.565 6.9363-9.6565 10.204-14.957 15.85-1.293 1.3772-4.173 4.443-6.408 6.804s-4.512 4.793-5.06 5.404c-1.342 1.498-3.427 3.054-4.591 3.427-0.74375 0.23791-3.0108 0.82989-4.239-0.326-6.2685-5.8995-9.1584-9.7893-14.592-15.154-0.999-1.143-2.422-2.724-3.162-3.511-6.253-6.656-7.018-7.933-5.551-9.261 3.3927-3.5862 6.6646-6.1803 11.158-1.839 4.838 4.6742 14.105 12.076 14.105 12.076s13.82-10.428 17.038-13.732 22.991-18.245 22.991-18.245" fill="#4cca0b" fill-rule="evenodd"/>
<path transform="matrix(11.092 0 0 11.092 -1521.7 -951.71)" d="m146.35 97.289c-4.278 1.136-7.223 3.805-8.594 7.79-0.731 2.126-0.83 40.129-0.11 42.578 1.825 6.214 5.753 8.415 15.215 8.527 3.365 0.04 6.369 0.129 6.674 0.197 0.529 0.118 0.452 0.377-1.628 5.507-3.563 8.791-3.207 9.061 4.98 3.77 5.459-3.529 11.642-7.559 12.304-8.021l0.586-0.409v4.191l-4.883 2.506c-5.403 2.774-6.102 3.246-4.873 3.291 5.023 0.182 40.35-0.049 40.566-0.266 0.387-0.387-0.065-1.123-1.982-3.226l-1.614-1.772-11.849 0.022v-5.716l27.557-2e-3 2.084-0.658c4.202-1.328 6.944-4.144 8.22-8.445 0.606-2.04 1.1101-34.252 0.50713-34.483-3.3518-1.2881-36.682 39.543-45.861 39.492-3.635-0.021-4.561-0.631-10.116-6.667-2.531-2.75-5.735-6.231-7.12-7.735-1.385-1.503-3.736-4.082-5.224-5.729-2.311-3.068-7.544-6.6485-6.758-10.646 0.374-1.234 4.81-5.504 6.687-6.438 5.046-2.0796 8.2616 1.2539 12.153 4.411 2.5226 2.1497 5.165 4.3176 9.355 7.721 6.2833-6.2596 17.287-13.894 25.127-21.707 2.4992-2.4908 7.834-7.006 6.947-7.987-0.623-0.688-65.774-0.779-68.35-0.096" fill="#053bdb" fill-rule="evenodd"/>
</svg>